<?xml version="1.0" encoding="utf-8"?>
<!-- Generator: Adobe Illustrator 19.0.0, SVG Export Plug-In . SVG Version: 6.00 Build 0)  -->
<svg version="1.1" id="图层_1" xmlns="http://www.w3.org/2000/svg" xmlns:xlink="http://www.w3.org/1999/xlink" x="0px" y="0px"
	 viewBox="-186 404.7 59 54.3" style="enable-background:new -186 404.7 59 54.3;" xml:space="preserve">
<style type="text/css">
	.st0{fill:#FFFFFF;}
	.st1{font-family:'STYuanti-SC-Bold';}
	.st2{font-size:2.8899px;}
</style>
<path class="st0" d="M-158.1,435.4c-3.1,0-5.5-2.5-5.5-5.5s2.5-5.5,5.5-5.5s5.5,2.5,5.5,5.5C-152.5,432.8-155,435.4-158.1,435.4z
	 M-158.1,425.1c-2.6,0-4.8,2.2-4.8,4.8s2.2,4.8,4.8,4.8c2.6,0,4.8-2.2,4.8-4.8S-155.4,425.1-158.1,425.1z"/>
<path class="st0" d="M-143.9,444h-28.4c-0.4,0-0.7-0.3-0.7-0.7v-1.2l-2-0.4c-0.4-0.1-0.7-0.5-0.6-0.9l0.4-1.8l-1.7-0.7
	c-0.2-0.1-0.3-0.2-0.4-0.4c-0.1-0.2-0.1-0.4,0-0.5l0.7-1.8l-1.6-1.1c-0.2-0.1-0.3-0.3-0.3-0.5c0-0.2,0-0.4,0.1-0.5l1.1-1.5l-1.3-1.3
	c-0.2-0.2-0.2-0.3-0.2-0.5c0-0.2,0.1-0.4,0.2-0.5l1.4-1.4l-1.1-1.7c-0.1-0.2-0.2-0.4-0.1-0.5c0-0.2,0.2-0.4,0.3-0.5l1.6-1l-0.7-1.7
	c-0.2-0.4,0.1-0.8,0.4-1l1.8-0.7l-0.4-2c-0.1-0.2,0-0.4,0.1-0.5c0.1-0.2,0.3-0.3,0.5-0.3l1.8-0.4v-1.9c0-0.4,0.3-0.7,0.7-0.7h2
	l0.4-2c0.1-0.4,0.5-0.7,0.9-0.6l1.8,0.4l0.6-1.7c0.1-0.2,0.2-0.3,0.4-0.4c0.2-0.1,0.4-0.1,0.5,0l1.8,0.7l1.1-1.6
	c0.1-0.2,0.3-0.3,0.5-0.3s0.4,0,0.5,0.1l1.5,1.1l1.3-1.3c0.3-0.3,0.7-0.3,1.1,0l1.4,1.4l1.6-1.1c0.3-0.2,0.8-0.2,1.1,0.2l1,1.6
	l1.7-0.7c0.2-0.1,0.4-0.1,0.5,0s0.3,0.2,0.4,0.4l0.7,1.8l2-0.4c0.2-0.1,0.4,0,0.5,0.1c0.2,0.1,0.3,0.3,0.3,0.5l0.4,1.8h1.9
	c0.4,0,0.7,0.3,0.7,0.7v2l2,0.4c0.2,0.1,0.4,0.2,0.5,0.3c0.1,0.2,0.2,0.4,0.1,0.5l-0.4,1.8l1.7,0.7c0.2,0.1,0.3,0.2,0.4,0.4
	c0.1,0.2,0.1,0.4,0,0.5l-0.7,1.8l1.6,1.1c0.3,0.2,0.5,0.7,0.2,1.1l-1.1,1.5l1.3,1.3c0.2,0.2,0.2,0.3,0.2,0.5c0,0.2-0.1,0.4-0.2,0.5
	l-1.4,1.4l1.1,1.6c0.1,0.2,0.2,0.4,0.1,0.5c-0.1,0.2-0.2,0.4-0.3,0.5l-1.6,1l0.7,1.7c0.1,0.2,0.1,0.4,0,0.5s-0.2,0.3-0.4,0.4
	l-1.8,0.7l0.4,2c0.1,0.2,0,0.4-0.1,0.5c-0.1,0.2-0.3,0.3-0.5,0.3l-1.8,0.4v1.1C-143.1,443.7-143.5,444-143.9,444z M-171.5,442.5
	h26.9v-1c0-0.4,0.3-0.7,0.6-0.7l1.7-0.3l-0.3-1.8c-0.1-0.3,0.1-0.7,0.5-0.8l1.7-0.7l-0.7-1.6c-0.2-0.3-0.1-0.7,0.3-0.9l1.5-1l-1-1.5
	c-0.2-0.3-0.2-0.7,0.1-1l1.3-1.3l-1.3-1.3c-0.3-0.3-0.3-0.6-0.1-1l1-1.4l-1.5-1c-0.3-0.2-0.4-0.5-0.3-0.9l0.7-1.7l-1.6-0.7
	c-0.3-0.2-0.5-0.5-0.5-0.8l0.3-1.7l-1.8-0.4c-0.3-0.1-0.6-0.4-0.6-0.7v-1.8h-1.7c-0.4,0-0.7-0.3-0.7-0.6l-0.3-1.7l-1.8,0.3
	c-0.3,0.1-0.7-0.1-0.8-0.5l-0.7-1.7l-1.6,0.7c-0.3,0.2-0.7,0.1-0.9-0.3l-1-1.5l-1.5,1c-0.3,0.2-0.7,0.2-1-0.1l-1.3-1.3l-1.3,1.3
	c-0.3,0.3-0.6,0.3-1,0.1l-1.4-1l-1,1.5c-0.2,0.3-0.5,0.4-0.9,0.3l-1.7-0.7l-0.7,1.6c-0.2,0.3-0.5,0.5-0.8,0.5l-1.7-0.3l-0.4,1.8
	c-0.1,0.3-0.4,0.6-0.7,0.6h-1.8v1.7c0,0.4-0.3,0.7-0.6,0.7l-1.7,0.3l0.3,1.8c0.1,0.3-0.1,0.7-0.5,0.8l-1.7,0.7l0.7,1.6
	c0.2,0.3,0.1,0.7-0.3,0.9l-1.5,1l1,1.5c0.2,0.3,0.2,0.7-0.1,1l-1.3,1.3l1.3,1.3c0.3,0.3,0.3,0.6,0.1,1l-1,1.4l1.5,1
	c0.3,0.2,0.4,0.5,0.3,0.9l-0.7,1.7l1.6,0.7c0.3,0.2,0.5,0.5,0.5,0.8l-0.3,1.7l1.8,0.4c0.3,0.1,0.6,0.4,0.6,0.7L-171.5,442.5
	L-171.5,442.5z"/>
<path class="st0" d="M-140.1,454.4H-176c-3.3,0-6-2.7-6-6c0-3.3,2.7-6,6-6h35.9c3.3,0,6,2.7,6,6
	C-134.2,451.7-136.9,454.4-140.1,454.4L-140.1,454.4z M-176,444c-2.5,0-4.4,2-4.4,4.4s2,4.4,4.4,4.4h36c2.5,0,4.4-2,4.4-4.4
	s-2-4.4-4.4-4.4H-176z"/>
<text transform="matrix(1 0 0 1 -167.9001 420.9263)" class="st0 st1 st2">天津宇轩科技</text>
</svg>
