<?xml version="1.0" encoding="utf-8"?>
<!-- Generator: Adobe Illustrator 19.0.0, SVG Export Plug-In . SVG Version: 6.00 Build 0)  -->
<svg version="1.1" id="图层_1" xmlns="http://www.w3.org/2000/svg" xmlns:xlink="http://www.w3.org/1999/xlink" x="0px" y="0px"
	 viewBox="-205 297 200 200" style="enable-background:new -205 297 200 200;" xml:space="preserve">
<style type="text/css">
	.st0{fill:#FFFFFF;}
	.st1{font-family:'STYuanti-SC-Bold';}
	.st2{font-size:12px;}
</style>
<path class="st0" d="M-105,412.2c-12.7,0-23-10.3-23-23s10.3-23,23-23s23,10.5,23,23.1S-92.3,412.2-105,412.2z M-105,369.5
	c-10.9,0-19.8,8.9-19.8,19.8s8.9,19.7,19.8,19.7s19.8-8.9,19.8-19.7S-94.1,369.5-105,369.5z"/>
<path class="st0" d="M-46.1,448.2h-117.8c-1.7,0-3.1-1.4-3.1-3.1V440l-8.1-1.6c-1.7-0.3-2.8-2-2.5-3.8l1.6-7.7l-7.2-3
	c-0.8-0.3-1.4-0.9-1.7-1.7s-0.3-1.6,0-2.3l3.1-7.7l-6.9-4.5c-0.6-0.5-1.1-1.2-1.2-2s0-1.7,0.5-2.3l4.4-6.4l-5.5-5.5
	c-0.6-0.6-0.9-1.4-0.9-2.2s0.3-1.6,0.9-2.2l5.8-5.8l-4.5-7c-0.5-0.6-0.6-1.6-0.5-2.3s0.6-1.6,1.4-2l6.6-4.2l-3-7.2
	c-0.6-1.6,0.2-3.4,1.7-4.1l7.7-3.1l-1.6-8.1c-0.2-0.8,0-1.7,0.5-2.3s1.2-1.1,2-1.2l7.7-1.6v-7.8c0-1.7,1.4-3.1,3.1-3.1h8.3l1.7-8.1
	c0.3-1.7,2-2.8,3.8-2.5l7.7,1.6l2.5-7c0.3-0.8,0.9-1.4,1.7-1.7s1.6-0.3,2.3,0l7.7,3.1l4.5-6.9c0.5-0.6,1.2-1.1,2-1.2s1.7,0,2.3,0.5
	l6.4,4.4l5.5-5.5c1.2-1.2,3.1-1.2,4.4,0l5.9,5.8l6.9-4.5c1.4-0.9,3.4-0.6,4.4,0.9l4.2,6.6l7.2-3c0.8-0.3,1.6-0.3,2.3,0
	s1.4,0.9,1.7,1.7l3.1,7.7l8.1-1.6c0.8-0.2,1.7,0,2.3,0.5c0.6,0.5,1.1,1.2,1.3,2l1.6,7.7h7.8c1.7,0,3.1,1.4,3.1,3.1v8.3l8.1,1.7
	c0.8,0.2,1.6,0.6,2,1.4c0.5,0.6,0.6,1.6,0.5,2.3l-1.6,7.7l7.2,3c0.8,0.3,1.4,0.9,1.7,1.7c0.3,0.8,0.3,1.6,0,2.3l-3.1,7.7l6.9,4.5
	c1.4,0.9,1.9,3,0.8,4.4l-4.4,6.4l5.5,5.5c0.6,0.6,0.9,1.4,0.9,2.2s-0.3,1.6-0.9,2.2l-5.8,5.8l4.5,6.9c0.5,0.6,0.6,1.6,0.5,2.3
	c-0.2,0.8-0.6,1.6-1.4,2l-6.6,4.2l3,7.2c0.3,0.8,0.3,1.6,0,2.3s-0.9,1.4-1.7,1.7l-7.7,3.1l1.6,8.1c0.2,0.8,0,1.7-0.5,2.3
	s-1.3,1.1-2,1.2l-7.7,1.6v4.7C-43,446.8-44.4,448.2-46.1,448.2z M-160.8,442h111.7v-4.1c0-1.6,1.1-2.8,2.5-3.1l7-1.4l-1.4-7.5
	c-0.3-1.4,0.5-3,1.9-3.4l7-3l-2.8-6.7c-0.6-1.4-0.2-3,1.1-3.8l6.1-4.1l-4.2-6.4c-0.8-1.2-0.6-2.8,0.5-3.9l5.5-5.5l-5.2-5.2
	c-1.1-1.1-1.3-2.7-0.3-3.9l4.1-5.9l-6.4-4.2c-1.3-0.8-1.7-2.3-1.1-3.8l3-7l-6.7-2.8c-1.4-0.6-2.2-2-1.9-3.4l1.4-7l-7.5-1.6
	c-1.4-0.3-2.5-1.6-2.5-3.1v-7.7h-7.2c-1.6,0-2.8-1.1-3.1-2.5l-1.4-7l-7.5,1.4c-1.4,0.3-3-0.5-3.4-1.9l-3-7l-6.7,2.8
	c-1.4,0.6-3,0.2-3.8-1.1l-4.1-6.1l-6.4,3.9c-1.2,0.8-2.8,0.6-3.9-0.5l-5.5-5.3l-5.2,5.2c-1.1,1.1-2.7,1.2-3.9,0.3l-5.9-4.1l-4.2,6.4
	c-0.8,1.2-2.3,1.7-3.8,1.1l-7-3l-2.8,6.7c-0.6,1.4-2,2.2-3.4,1.9l-7-1.4l-1.6,7.5c-0.3,1.4-1.6,2.5-3.1,2.5h-7.7v7.3
	c0,1.6-1.1,2.8-2.5,3.1l-7,1.4l1.4,7.5c0.3,1.4-0.5,3-1.9,3.4l-7,3l2.8,6.7c0.6,1.4,0.2,3-1.1,3.8l-6.4,3.9l4.2,6.4
	c0.8,1.2,0.6,2.8-0.5,3.9l-5.5,5.5l5.2,5.2c1.1,1.1,1.2,2.7,0.3,3.9l-4.1,5.9l6.4,4.2c1.2,0.8,1.7,2.3,1.1,3.8l-3,7l6.7,2.8
	c1.4,0.6,2.2,2,1.9,3.4l-1.2,7.3l7.5,1.6c1.4,0.3,2.5,1.6,2.5,3.1L-160.8,442L-160.8,442z"/>
<path class="st0" d="M-30.5,491.2h-149.1c-13.6,0-24.7-11.1-24.7-24.7s11.1-24.7,24.7-24.7h149.2c13.6,0,24.7,11.1,24.7,24.7
	S-16.9,491.2-30.5,491.2L-30.5,491.2z M-179.5,448.2c-10.2,0-18.4,8.3-18.4,18.4s8.3,18.4,18.4,18.4h149.2
	c10.2,0,18.4-8.3,18.4-18.4s-8.3-18.4-18.4-18.4H-179.5z"/>
<text transform="matrix(1 0 0 1 -139 359)" class="st0 st1 st2">天津宇轩科技</text>
</svg>
