<?xml version="1.0" encoding="utf-8"?>
<!-- Generator: Adobe Illustrator 19.0.0, SVG Export Plug-In . SVG Version: 6.00 Build 0)  -->
<svg version="1.1" id="图层_1" xmlns="http://www.w3.org/2000/svg" xmlns:xlink="http://www.w3.org/1999/xlink" x="0px" y="0px"
	 viewBox="-162 331 119 124" style="enable-background:new -162 331 119 124;" xml:space="preserve">
<style type="text/css">
	.st0{fill:#FFFFFF;}
	.st1{font-family:'STYuanti-SC-Bold';}
	.st2{font-size:5.4734px;}
</style>
<path class="st0" d="M-105,401.1c-5.8,0-10.5-4.7-10.5-10.5c0-5.8,4.7-10.5,10.5-10.5c5.8,0,10.5,4.8,10.5,10.5
	S-99.2,401.1-105,401.1z M-105,381.6c-5,0-9,4.1-9,9s4.1,9,9,9c5,0,9-4.1,9-9C-96,385.7-100,381.6-105,381.6z"/>
<path class="st0" d="M-78.1,417.5h-53.7c-0.8,0-1.4-0.6-1.4-1.4v-2.3l-3.7-0.7c-0.8-0.1-1.3-0.9-1.1-1.7l0.7-3.5l-3.3-1.4
	c-0.4-0.1-0.6-0.4-0.8-0.8c-0.1-0.4-0.1-0.7,0-1l1.4-3.5l-3.1-2.1c-0.3-0.2-0.5-0.5-0.5-0.9c0-0.4,0-0.8,0.2-1l2-2.9l-2.5-2.5
	c-0.3-0.3-0.4-0.6-0.4-1c0-0.4,0.1-0.7,0.4-1l2.6-2.6l-2.1-3.2c-0.2-0.3-0.3-0.7-0.2-1c0-0.3,0.3-0.7,0.6-0.9l3-1.9l-1.4-3.3
	c-0.3-0.7,0.1-1.6,0.8-1.9l3.5-1.4l-0.7-3.7c-0.1-0.4,0-0.8,0.2-1c0.2-0.3,0.5-0.5,0.9-0.5l3.5-0.7v-3.6c0-0.8,0.6-1.4,1.4-1.4h3.8
	l0.8-3.7c0.1-0.8,0.9-1.3,1.7-1.1l3.5,0.7l1.1-3.2c0.1-0.4,0.4-0.6,0.8-0.8c0.4-0.1,0.7-0.1,1,0l3.5,1.4l2.1-3.1
	c0.2-0.3,0.5-0.5,0.9-0.5c0.4,0,0.8,0,1,0.2l2.9,2l2.5-2.5c0.5-0.5,1.4-0.5,2,0l2.7,2.6l3.1-2.1c0.6-0.4,1.6-0.3,2,0.4l1.9,3
	l3.3-1.4c0.4-0.1,0.7-0.1,1,0c0.3,0.1,0.6,0.4,0.8,0.8l1.4,3.5l3.7-0.7c0.4-0.1,0.8,0,1,0.2c0.3,0.2,0.5,0.5,0.6,0.9l0.7,3.5h3.6
	c0.8,0,1.4,0.6,1.4,1.4v3.8l3.7,0.8c0.4,0.1,0.7,0.3,0.9,0.6c0.2,0.3,0.3,0.7,0.2,1l-0.7,3.5l3.3,1.4c0.4,0.1,0.6,0.4,0.8,0.8
	c0.1,0.4,0.1,0.7,0,1l-1.4,3.5l3.1,2.1c0.6,0.4,0.9,1.4,0.4,2l-2,2.9l2.5,2.5c0.3,0.3,0.4,0.6,0.4,1c0,0.4-0.1,0.7-0.4,1l-2.6,2.6
	l2.1,3.1c0.2,0.3,0.3,0.7,0.2,1c-0.1,0.4-0.3,0.7-0.6,0.9l-3,1.9l1.4,3.3c0.1,0.4,0.1,0.7,0,1s-0.4,0.6-0.8,0.8l-3.5,1.4l0.7,3.7
	c0.1,0.4,0,0.8-0.2,1c-0.2,0.3-0.6,0.5-0.9,0.5l-3.5,0.7v2.1C-76.7,416.9-77.4,417.5-78.1,417.5z M-130.5,414.7h50.9v-1.9
	c0-0.7,0.5-1.3,1.1-1.4l3.2-0.6l-0.6-3.4c-0.1-0.6,0.2-1.4,0.9-1.6l3.2-1.4l-1.3-3.1c-0.3-0.6-0.1-1.4,0.5-1.7l2.8-1.9l-1.9-2.9
	c-0.4-0.5-0.3-1.3,0.2-1.8l2.5-2.5l-2.4-2.4c-0.5-0.5-0.6-1.2-0.1-1.8l1.9-2.7l-2.9-1.9c-0.6-0.4-0.8-1-0.5-1.7l1.4-3.2l-3.1-1.3
	c-0.6-0.3-1-0.9-0.9-1.6l0.6-3.2l-3.4-0.7c-0.6-0.1-1.1-0.7-1.1-1.4v-3.5h-3.3c-0.7,0-1.3-0.5-1.4-1.1l-0.6-3.2l-3.4,0.6
	c-0.6,0.1-1.4-0.2-1.6-0.9l-1.4-3.2l-3.1,1.3c-0.6,0.3-1.4,0.1-1.7-0.5l-1.9-2.8l-2.9,1.8c-0.5,0.4-1.3,0.3-1.8-0.2l-2.5-2.4
	l-2.4,2.4c-0.5,0.5-1.2,0.5-1.8,0.1l-2.7-1.9l-1.9,2.9c-0.4,0.5-1,0.8-1.7,0.5l-3.2-1.4l-1.3,3.1c-0.3,0.6-0.9,1-1.6,0.9l-3.2-0.6
	l-0.7,3.4c-0.1,0.6-0.7,1.1-1.4,1.1h-3.5v3.3c0,0.7-0.5,1.3-1.1,1.4l-3.2,0.6l0.6,3.4c0.1,0.6-0.2,1.4-0.9,1.6l-3.2,1.4l1.3,3.1
	c0.3,0.6,0.1,1.4-0.5,1.7l-2.9,1.8l1.9,2.9c0.4,0.5,0.3,1.3-0.2,1.8l-2.5,2.5l2.4,2.4c0.5,0.5,0.5,1.2,0.1,1.8l-1.9,2.7l2.9,1.9
	c0.5,0.4,0.8,1,0.5,1.7l-1.4,3.2l3.1,1.3c0.6,0.3,1,0.9,0.9,1.6l-0.5,3.3l3.4,0.7c0.6,0.1,1.1,0.7,1.1,1.4V414.7L-130.5,414.7z"/>
<path class="st0" d="M-71,437.1h-68c-6.2,0-11.3-5.1-11.3-11.3s5.1-11.3,11.3-11.3H-71c6.2,0,11.3,5.1,11.3,11.3
	S-64.8,437.1-71,437.1L-71,437.1z M-139,417.5c-4.7,0-8.4,3.8-8.4,8.4c0,4.6,3.8,8.4,8.4,8.4h68.1c4.7,0,8.4-3.8,8.4-8.4
	c0-4.6-3.8-8.4-8.4-8.4H-139z"/>
<text transform="matrix(1 0 0 1 -120.5084 376.8503)" class="st0 st1 st2">天津宇轩科技</text>
</svg>
